<svg xmlns="http://www.w3.org/2000/svg" width="330" height="252" viewBox="0 0 330 252" fill="none">
  <defs>
    <linearGradient id="g" x1="0" y1="0" x2="1" y2="1">
      <stop offset="0%" stop-color="#00d4ff"/>
      <stop offset="100%" stop-color="#8b5cf6"/>
    </linearGradient>
  </defs>
  <g transform="translate(20,8) skewX(-7)" stroke="url(#g)" stroke-linecap="round" stroke-linejoin="miter" stroke-miterlimit="9">
    <g stroke-width="14">
      <path d="M30,128 L70,20"/>
      <path d="M70,20 L110,128"/>
    </g>
    <path d="M124,46 A26,26 0 1 1 124,98" stroke-width="3.5" opacity="0.26"/>
    <path stroke-width="6" d="M34,110 L46,86 L58,86 L64,68 L70,108 L76,86 L92,86 L106,86 L118,87 L124,90 A19,19 0 1 0 124,52 L124,116"/>
  </g>
  <!-- NOTE: text below references Space Grotesk; outline to paths before handoff to third parties -->
  <g font-family="'Space Grotesk', sans-serif" font-weight="600" font-size="34" letter-spacing="-1">
    <text x="74" y="168" text-anchor="middle" fill="#ffffff">u</text>
    <text x="74" y="202" text-anchor="middle" fill="#ffffff">r</text>
    <text x="74" y="236" text-anchor="middle" fill="#ffffff">a</text>
    <text x="166" y="104" fill="url(#g)">rotocols</text>
  </g>
</svg>
